<svg version="1.1" xmlns="http://www.w3.org/2000/svg" viewBox="0 0 612.0000610351562 112.80000305175781" width="612.0000610351562" height="112.80000305175781" class="excalidraw-svg">
  <!-- svg-source:excalidraw -->
  
  <defs>
    <style class="style-fonts">
      @font-face {
        font-family: "Virgil";
        src: url("https://excalidraw.com/Virgil.woff2");
      }
      @font-face {
        font-family: "Cascadia";
        src: url("https://excalidraw.com/Cascadia.woff2");
      }
      @font-face {
        font-family: "Assistant";
        src: url("https://excalidraw.com/Assistant-Regular.woff2");
      }
    </style>
    
  </defs>
  <g stroke-linecap="round" transform="translate(10 32.40000915527344) rotate(0 296.0000305175781 28)"><path d="M14 0 C149.24 -1.9, 283.3 -1.76, 578 0 M14 0 C147.76 0.16, 281.73 0.39, 578 0 M578 0 C586.62 0.47, 592.98 5.15, 592 14 M578 0 C585.33 -1.46, 592.23 6.95, 592 14 M592 14 C592.58 24.55, 593.37 36.78, 592 42 M592 14 C592.9 19.6, 591.24 25.24, 592 42 M592 42 C593.63 52.45, 587.95 56.24, 578 56 M592 42 C592.71 52.99, 588.09 56.63, 578 56 M578 56 C421.34 58.26, 265.47 58.45, 14 56 M578 56 C397.1 53.93, 216.68 53.87, 14 56 M14 56 C5.66 54.59, 1.66 50.85, 0 42 M14 56 C4.78 56.07, -0.84 50.29, 0 42 M0 42 C-1.61 35.44, 0.21 24.91, 0 14 M0 42 C-0.66 34.79, 0.78 25.38, 0 14 M0 14 C1.92 6.03, 3.77 -0.63, 14 0 M0 14 C0.15 2.58, 6.83 2.06, 14 0" stroke="#1e1e1e" stroke-width="2" fill="none"/></g><g transform="translate(24.800048828125 74.80000305175781) rotate(0 73.19998168945312 -3.1999969482421875)" stroke="none"><path fill="#1e1e1e" d="M -3.51,-3.51 Q -3.51,-3.51 -0.88,-5.94 1.73,-8.38 4.38,-10.52 7.03,-12.66 8.86,-14.39 10.70,-16.13 12.90,-18.17 15.10,-20.21 16.76,-21.56 18.42,-22.90 20.63,-22.93 22.83,-22.96 25.36,-20.30 27.90,-17.63 27.22,-12.93 26.54,-8.23 25.73,-5.49 24.92,-2.75 24.02,0.42 23.11,3.59 21.92,6.96 20.73,10.34 20.11,12.93 19.49,15.51 18.59,18.68 17.69,21.86 17.08,23.25 16.48,24.65 16.28,25.32 16.09,25.99 15.74,26.59 15.39,27.19 14.90,27.69 14.42,28.19 13.83,28.56 13.24,28.93 12.58,29.15 11.92,29.37 11.23,29.42 10.53,29.48 9.84,29.36 9.16,29.25 8.52,28.97 7.88,28.70 7.32,28.28 6.77,27.86 6.33,27.32 5.89,26.78 5.60,26.15 5.30,25.52 5.16,24.84 5.03,24.15 5.06,23.46 5.09,22.76 5.82,20.47 6.55,18.18 7.89,15.83 9.24,13.48 11.04,10.95 12.85,8.41 14.52,6.05 16.19,3.68 17.90,1.41 19.60,-0.84 21.25,-2.96 22.91,-5.07 24.99,-7.14 27.06,-9.22 28.64,-10.99 30.21,-12.77 31.53,-14.44 32.84,-16.11 34.59,-17.83 36.33,-19.56 39.30,-22.02 42.28,-24.49 44.36,-26.25 46.44,-28.01 48.58,-29.58 50.72,-31.16 53.89,-31.17 57.05,-31.18 59.09,-29.99 61.14,-28.81 61.87,-24.89 62.60,-20.97 61.23,-17.91 59.87,-14.84 58.67,-11.74 57.48,-8.63 56.25,-5.76 55.02,-2.88 53.81,0.68 52.61,4.24 51.75,6.48 50.89,8.72 49.65,10.90 48.41,13.08 47.69,13.50 46.96,13.93 46.16,14.18 45.35,14.42 44.51,14.47 43.67,14.51 42.84,14.35 42.01,14.19 41.25,13.84 40.48,13.49 39.82,12.96 39.16,12.44 38.65,11.77 38.14,11.10 37.80,10.33 37.46,9.56 37.31,8.73 37.17,7.90 37.23,7.06 37.29,6.22 37.54,5.42 37.80,4.61 38.24,3.90 38.68,3.18 39.29,2.59 39.89,2.00 42.08,-0.37 44.27,-2.76 46.61,-4.85 48.95,-6.95 52.12,-9.26 55.28,-11.56 57.95,-13.56 60.61,-15.56 62.91,-17.35 65.20,-19.14 67.51,-21.78 69.83,-24.43 72.20,-26.53 74.58,-28.64 74.05,-28.22 73.53,-27.80 73.99,-28.38 74.45,-28.95 75.03,-29.40 75.62,-29.85 76.29,-30.14 76.97,-30.44 77.69,-30.56 78.42,-30.69 79.15,-30.64 79.89,-30.58 80.59,-30.36 81.29,-30.13 81.92,-29.74 82.54,-29.35 83.06,-28.83 83.58,-28.30 83.95,-27.67 84.32,-27.03 84.54,-26.33 84.75,-25.62 84.78,-24.88 84.82,-24.15 84.68,-23.43 84.54,-22.70 84.23,-22.03 83.92,-21.36 84.36,-23.55 84.79,-25.74 85.10,-23.59 85.41,-21.44 85.19,-17.58 84.97,-13.72 84.30,-11.03 83.63,-8.33 82.42,-3.81 81.21,0.70 80.62,3.25 80.03,5.81 79.54,8.06 79.06,10.32 78.06,7.67 77.06,5.01 74.74,4.29 72.42,3.58 74.44,2.56 76.47,1.54 78.62,0.47 80.78,-0.60 83.23,-2.01 85.67,-3.43 89.21,-5.00 92.74,-6.58 95.71,-8.03 98.68,-9.48 102.10,-11.12 105.52,-12.76 108.57,-14.36 111.63,-15.97 114.54,-17.56 117.45,-19.16 120.92,-20.74 124.39,-22.32 126.85,-23.71 129.30,-25.09 131.45,-26.41 133.60,-27.73 136.90,-29.79 140.20,-31.86 145.26,-32.44 150.33,-33.01 150.76,-32.29 151.19,-31.57 151.37,-30.74 151.55,-29.92 151.45,-29.08 151.36,-28.24 151.00,-27.48 150.64,-26.72 150.06,-26.11 149.48,-25.50 148.73,-25.11 147.99,-24.71 147.15,-24.58 146.32,-24.45 145.49,-24.59 144.66,-24.73 143.92,-25.13 143.17,-25.52 142.60,-26.14 142.02,-26.75 141.67,-27.52 141.32,-28.28 141.23,-29.12 141.14,-29.96 141.33,-30.78 141.51,-31.61 141.95,-32.33 142.39,-33.05 143.03,-33.59 143.68,-34.13 144.46,-34.44 145.24,-34.75 146.09,-34.79 146.93,-34.83 147.74,-34.61 148.55,-34.38 149.25,-33.90 149.94,-33.42 150.45,-32.75 150.96,-32.08 151.22,-31.28 151.49,-30.48 151.48,-29.64 151.48,-28.79 151.21,-28.00 150.93,-27.20 150.42,-26.53 149.91,-25.86 149.21,-25.39 148.51,-24.92 147.70,-24.70 146.88,-24.48 146.04,-24.53 145.20,-24.57 144.42,-24.89 143.64,-25.21 143.00,-25.75 142.36,-26.30 142.36,-26.30 142.36,-26.30 144.34,-24.98 146.32,-23.66 144.29,-22.90 142.27,-22.15 140.22,-20.92 138.18,-19.69 135.86,-18.46 133.54,-17.23 130.89,-15.86 128.24,-14.48 125.11,-12.83 121.98,-11.18 119.10,-9.49 116.22,-7.80 113.23,-6.00 110.24,-4.21 107.01,-2.17 103.78,-0.14 100.84,1.63 97.89,3.40 95.10,5.09 92.31,6.78 89.61,8.71 86.91,10.65 83.48,12.50 80.04,14.35 77.40,15.40 74.75,16.44 72.13,15.83 69.51,15.22 68.41,13.28 67.32,11.33 67.56,7.44 67.80,3.54 68.66,0.44 69.52,-2.66 70.10,-4.76 70.67,-6.86 71.58,-10.95 72.49,-15.04 72.84,-18.44 73.19,-21.83 73.36,-24.82 73.53,-27.80 73.99,-28.38 74.45,-28.95 75.03,-29.40 75.62,-29.85 76.29,-30.14 76.97,-30.44 77.69,-30.56 78.42,-30.69 79.15,-30.64 79.89,-30.58 80.59,-30.36 81.29,-30.13 81.92,-29.74 82.54,-29.35 83.06,-28.83 83.58,-28.30 83.95,-27.67 84.32,-27.03 84.54,-26.33 84.75,-25.62 84.78,-24.89 84.82,-24.15 84.68,-23.43 84.54,-22.70 84.23,-22.03 83.92,-21.37 83.35,-21.04 82.78,-20.71 81.12,-19.20 79.45,-17.70 77.62,-16.21 75.78,-14.73 73.98,-12.69 72.19,-10.65 70.01,-8.79 67.83,-6.92 65.39,-4.66 62.96,-2.40 60.60,-0.08 58.25,2.22 55.14,5.74 52.04,9.25 50.23,11.16 48.41,13.07 47.69,13.50 46.96,13.93 46.16,14.18 45.35,14.42 44.51,14.47 43.67,14.51 42.84,14.35 42.01,14.19 41.25,13.84 40.48,13.49 39.82,12.96 39.17,12.44 38.65,11.77 38.14,11.10 37.80,10.33 37.46,9.56 37.31,8.73 37.17,7.90 37.23,7.06 37.28,6.22 37.54,5.42 37.80,4.61 38.24,3.90 38.68,3.18 39.28,2.59 39.89,2.00 39.20,2.31 38.51,2.63 39.36,0.60 40.22,-1.42 40.96,-3.72 41.70,-6.01 42.85,-8.44 44.00,-10.86 45.70,-14.58 47.41,-18.30 49.34,-19.41 51.28,-20.53 54.25,-20.93 57.21,-21.33 54.52,-19.34 51.83,-17.34 49.10,-15.26 46.37,-13.17 43.87,-11.16 41.37,-9.15 39.86,-7.35 38.36,-5.55 36.53,-3.50 34.71,-1.45 33.13,0.07 31.54,1.61 29.99,3.64 28.44,5.67 26.93,7.76 25.43,9.85 23.87,12.31 22.31,14.77 20.85,17.10 19.39,19.44 17.94,22.05 16.48,24.65 16.28,25.32 16.09,25.99 15.74,26.59 15.39,27.19 14.90,27.69 14.42,28.19 13.83,28.56 13.24,28.93 12.58,29.15 11.92,29.37 11.23,29.42 10.53,29.48 9.85,29.36 9.16,29.25 8.52,28.97 7.88,28.70 7.32,28.28 6.77,27.86 6.33,27.32 5.89,26.78 5.60,26.15 5.30,25.52 5.16,24.84 5.03,24.15 5.06,23.46 5.09,22.76 6.36,20.34 7.63,17.93 8.65,15.53 9.67,13.14 10.37,10.22 11.08,7.30 11.93,4.21 12.78,1.13 13.42,-2.24 14.07,-5.61 15.98,-10.06 17.89,-14.50 19.89,-13.44 21.90,-12.38 19.49,-10.71 17.08,-9.04 14.99,-7.23 12.90,-5.43 10.64,-3.58 8.38,-1.73 5.94,0.88 3.51,3.51 3.03,3.87 2.56,4.24 2.02,4.49 1.47,4.73 0.88,4.84 0.29,4.95 -0.29,4.91 -0.89,4.88 -1.46,4.70 -2.03,4.52 -2.54,4.21 -3.06,3.90 -3.48,3.48 -3.90,3.06 -4.21,2.54 -4.52,2.03 -4.70,1.46 -4.88,0.89 -4.91,0.29 -4.95,-0.30 -4.84,-0.88 -4.73,-1.47 -4.49,-2.02 -4.24,-2.56 -3.87,-3.03 -3.51,-3.51 -3.51,-3.51 L -3.51,-3.51 Z"/></g><g transform="translate(439.20001220703125 58.00001525878906) rotate(0 69.2000732421875 -1.6000137329101562)" stroke="none"><path fill="#1e1e1e" d="M 1.17,-3.80 Q 1.17,-3.80 3.77,-2.90 6.37,-2.01 13.53,-5.72 20.69,-9.44 27.25,-13.65 33.81,-17.86 39.79,-22.77 45.77,-27.69 51.92,-32.16 58.07,-36.63 61.76,-39.59 65.45,-42.55 67.40,-44.29 69.36,-46.04 71.16,-47.65 72.96,-49.26 76.09,-49.89 79.21,-50.52 80.05,-47.28 80.88,-44.03 78.81,-38.41 76.74,-32.80 75.03,-28.60 73.32,-24.40 71.32,-19.75 69.31,-15.11 67.23,-10.81 65.15,-6.51 63.66,-3.09 62.18,0.32 60.91,3.58 59.64,6.85 58.17,10.01 56.69,13.17 55.76,15.76 54.84,18.35 54.05,20.84 53.26,23.32 51.54,27.14 49.82,30.97 49.08,33.47 48.35,35.98 47.44,38.66 46.53,41.35 45.68,43.52 44.83,45.69 45.15,45.91 45.47,46.13 45.21,46.70 44.94,47.26 44.54,47.74 44.14,48.23 43.64,48.60 43.14,48.98 42.57,49.22 41.99,49.46 41.38,49.56 40.76,49.66 40.14,49.61 39.51,49.56 38.92,49.36 38.33,49.16 37.80,48.83 37.28,48.49 36.84,48.04 36.41,47.59 36.10,47.05 35.79,46.51 35.61,45.91 35.44,45.31 35.42,44.68 35.39,44.06 35.52,43.45 35.65,42.83 37.70,40.99 39.75,39.14 41.57,35.72 43.38,32.29 46.20,28.12 49.03,23.94 51.00,21.58 52.97,19.22 55.68,16.71 58.39,14.20 60.75,11.51 63.12,8.82 66.35,6.00 69.58,3.19 72.25,0.88 74.92,-1.42 77.10,-3.52 79.28,-5.62 81.08,-7.48 82.88,-9.34 84.99,-11.06 87.10,-12.78 88.96,-14.07 90.83,-15.35 93.16,-17.34 95.50,-19.32 98.25,-20.68 101.01,-22.03 103.05,-22.99 105.10,-23.95 107.95,-24.53 110.80,-25.12 113.79,-25.67 116.78,-26.22 119.89,-25.86 123.00,-25.50 124.81,-24.40 126.63,-23.29 127.36,-20.83 128.09,-18.36 127.44,-15.89 126.80,-13.42 125.65,-11.54 124.51,-9.65 123.13,-7.68 121.75,-5.71 119.82,-3.38 117.89,-1.05 113.96,4.27 110.03,9.59 106.98,13.50 103.93,17.41 102.37,20.11 100.80,22.80 99.47,25.37 98.14,27.93 96.78,30.03 95.43,32.14 94.53,34.53 93.64,36.92 89.54,35.86 85.44,34.79 86.47,32.84 87.49,30.90 89.37,29.10 91.24,27.30 93.39,25.52 95.55,23.75 97.78,21.80 100.01,19.85 103.17,17.71 106.33,15.57 108.89,13.68 111.45,11.79 115.53,9.08 119.60,6.38 122.41,4.28 125.22,2.18 126.95,0.56 128.68,-1.06 130.80,-2.91 132.92,-4.76 135.05,-6.05 137.18,-7.33 139.24,-8.57 141.30,-9.81 142.16,-9.94 143.01,-10.07 143.87,-9.92 144.72,-9.77 145.48,-9.36 146.24,-8.94 146.83,-8.30 147.42,-7.67 147.77,-6.88 148.13,-6.08 148.21,-5.22 148.29,-4.36 148.10,-3.51 147.90,-2.67 147.44,-1.93 146.99,-1.19 146.32,-0.64 145.65,-0.09 144.84,0.21 144.03,0.52 143.17,0.56 142.30,0.59 141.47,0.35 140.64,0.11 139.92,-0.38 139.21,-0.87 138.70,-1.57 138.18,-2.26 137.91,-3.09 137.65,-3.91 137.66,-4.78 137.67,-5.65 137.96,-6.47 138.24,-7.28 138.78,-7.97 139.31,-8.65 140.03,-9.13 140.76,-9.61 141.60,-9.83 142.43,-10.05 143.30,-9.99 144.16,-9.93 144.97,-9.60 145.77,-9.27 146.42,-8.70 147.07,-8.13 147.51,-7.38 147.95,-6.64 148.12,-5.79 148.30,-4.94 148.20,-4.08 148.09,-3.22 147.72,-2.43 147.34,-1.65 146.74,-1.03 146.13,-0.41 145.36,-0.01 144.59,0.37 144.59,0.37 144.59,0.37 142.16,1.42 139.72,2.47 137.15,4.14 134.57,5.82 132.55,7.41 130.53,9.01 127.76,11.24 125.00,13.47 121.37,16.63 117.75,19.78 115.17,21.94 112.60,24.09 110.17,26.06 107.75,28.03 105.49,30.33 103.23,32.64 100.11,35.43 97.00,38.22 93.37,40.78 89.75,43.35 86.39,42.82 83.04,42.28 82.53,40.20 82.01,38.12 82.63,35.91 83.24,33.70 84.36,31.79 85.48,29.88 87.70,26.72 89.93,23.57 91.35,20.92 92.77,18.28 94.45,15.23 96.12,12.17 98.53,7.95 100.94,3.74 104.43,-2.47 107.92,-8.69 109.39,-10.79 110.86,-12.89 112.97,-15.15 115.07,-17.42 117.23,-15.49 119.39,-13.56 117.14,-13.59 114.88,-13.62 112.30,-13.43 109.71,-13.23 107.60,-12.52 105.49,-11.80 102.48,-10.67 99.46,-9.53 96.10,-7.40 92.73,-5.28 90.95,-4.07 89.16,-2.86 87.20,-1.07 85.25,0.70 82.92,2.85 80.60,4.99 78.08,7.27 75.56,9.55 73.07,12.11 70.59,14.66 68.15,18.13 65.72,21.60 63.64,23.82 61.56,26.05 59.84,28.34 58.12,30.63 56.70,32.63 55.28,34.63 52.81,38.33 50.35,42.03 47.91,44.08 45.47,46.13 45.21,46.70 44.94,47.26 44.54,47.74 44.14,48.23 43.64,48.60 43.14,48.98 42.57,49.22 41.99,49.46 41.38,49.56 40.76,49.66 40.14,49.61 39.52,49.56 38.92,49.36 38.33,49.16 37.80,48.83 37.28,48.49 36.84,48.04 36.41,47.59 36.10,47.05 35.79,46.51 35.62,45.91 35.44,45.31 35.42,44.68 35.39,44.06 35.52,43.45 35.65,42.83 35.68,43.66 35.72,44.48 36.72,41.51 37.71,38.54 39.19,35.91 40.66,33.29 41.70,30.70 42.73,28.11 44.09,24.28 45.46,20.45 46.52,17.91 47.58,15.38 48.83,12.65 50.09,9.92 51.58,7.06 53.08,4.20 54.47,0.87 55.86,-2.44 57.37,-5.88 58.89,-9.31 60.63,-13.55 62.37,-17.79 63.95,-22.42 65.52,-27.06 66.83,-31.70 68.14,-36.33 70.84,-40.65 73.54,-44.97 76.22,-44.58 78.90,-44.18 76.15,-42.41 73.41,-40.64 71.29,-39.33 69.17,-38.02 65.43,-34.88 61.70,-31.74 55.80,-27.27 49.89,-22.79 43.74,-17.48 37.59,-12.17 30.77,-7.48 23.94,-2.79 14.76,1.44 5.58,5.69 2.20,4.74 -1.17,3.80 -1.60,3.60 -2.04,3.41 -2.42,3.11 -2.80,2.82 -3.10,2.44 -3.39,2.07 -3.59,1.63 -3.79,1.19 -3.88,0.72 -3.97,0.25 -3.94,-0.22 -3.91,-0.70 -3.77,-1.16 -3.63,-1.62 -3.38,-2.03 -3.14,-2.44 -2.80,-2.78 -2.46,-3.12 -2.05,-3.37 -1.64,-3.62 -1.18,-3.76 -0.73,-3.91 -0.25,-3.94 0.22,-3.97 0.69,-3.88 1.17,-3.80 1.17,-3.80 L 1.17,-3.80 Z"/></g><g transform="translate(233.60003662109375 37.19999694824219) rotate(0 34.000030517578125 17.600006103515625)" stroke="none"><path fill="#1e1e1e" d="M 5.03,0.31 Q 5.03,0.31 4.64,3.98 4.24,7.65 3.94,10.50 3.64,13.36 3.33,15.76 3.02,18.17 3.01,20.77 3.00,23.37 3.17,25.77 3.34,28.17 3.53,30.59 3.72,33.00 3.29,35.85 2.87,38.71 2.72,41.06 2.58,43.42 5.91,43.72 9.24,44.02 12.19,44.12 15.14,44.21 18.09,44.19 21.03,44.17 24.02,44.16 27.01,44.14 29.42,43.71 31.84,43.27 34.37,43.21 36.90,43.16 39.35,43.11 41.80,43.06 44.17,42.37 46.53,41.68 49.19,41.12 51.84,40.57 54.02,40.52 56.20,40.48 58.33,39.92 60.46,39.36 61.17,35.68 61.87,32.00 62.30,28.86 62.73,25.72 62.83,23.07 62.93,20.41 63.26,17.51 63.58,14.61 63.99,11.90 64.41,9.18 65.00,6.86 65.60,4.55 65.48,1.94 65.35,-0.67 65.37,-2.92 65.40,-5.16 61.96,-6.34 58.52,-7.51 55.29,-7.70 52.07,-7.89 49.48,-7.93 46.89,-7.97 42.86,-8.32 38.82,-8.67 35.97,-8.82 33.13,-8.97 30.78,-8.99 28.43,-9.01 25.59,-8.96 22.75,-8.91 20.14,-8.87 17.53,-8.83 14.86,-8.79 12.18,-8.75 10.02,-8.72 7.86,-8.69 5.53,-8.66 3.19,-8.64 2.38,-8.35 1.56,-8.06 0.82,-7.56 0.08,-7.06 -0.75,-6.75 -1.59,-6.45 -2.47,-6.35 -3.36,-6.25 -4.25,-6.36 -5.13,-6.48 -5.97,-6.80 -6.80,-7.13 -7.53,-7.64 -8.26,-8.16 -8.84,-8.83 -9.43,-9.51 -9.84,-10.30 -10.25,-11.10 -10.45,-11.97 -10.66,-12.84 -10.65,-13.73 -10.64,-14.62 -10.42,-15.49 -10.19,-16.35 -9.77,-17.14 -9.35,-17.93 -8.75,-18.59 -8.15,-19.25 -2.78,-18.71 2.58,-18.18 3.14,-17.12 3.71,-16.06 3.91,-14.88 4.11,-13.70 3.92,-12.51 3.74,-11.33 3.18,-10.27 2.62,-9.20 1.76,-8.38 0.89,-7.55 -0.18,-7.04 -1.27,-6.53 -2.46,-6.39 -3.65,-6.26 -4.82,-6.51 -6.00,-6.76 -7.03,-7.37 -8.06,-7.98 -8.84,-8.89 -9.62,-9.80 -10.07,-10.92 -10.52,-12.03 -10.59,-13.22 -10.66,-14.42 -10.35,-15.58 -10.03,-16.74 -9.37,-17.73 -8.70,-18.73 -7.75,-19.46 -6.80,-20.19 -5.66,-20.58 -4.53,-20.97 -3.33,-20.97 -2.13,-20.98 -0.99,-20.60 0.14,-20.22 1.10,-19.50 2.05,-18.78 2.73,-17.79 3.41,-16.81 3.74,-15.65 4.06,-14.50 4.01,-13.30 3.95,-12.10 3.51,-10.99 3.07,-9.87 2.30,-8.95 1.53,-8.03 0.50,-7.41 -0.51,-6.79 -1.68,-6.52 -2.85,-6.26 -4.04,-6.38 -5.24,-6.51 -6.33,-7.01 -7.42,-7.50 -2.92,-7.78 1.56,-8.06 0.82,-7.56 0.08,-7.06 -0.75,-6.75 -1.59,-6.45 -2.47,-6.35 -3.36,-6.25 -4.25,-6.36 -5.13,-6.48 -5.97,-6.80 -6.80,-7.13 -7.53,-7.64 -8.26,-8.16 -8.84,-8.83 -9.43,-9.51 -9.84,-10.30 -10.25,-11.10 -10.45,-11.97 -10.66,-12.84 -10.65,-13.73 -10.64,-14.62 -10.42,-15.49 -10.19,-16.35 -9.77,-17.14 -9.35,-17.93 -8.75,-18.59 -8.15,-19.25 -4.74,-20.82 -1.32,-22.38 0.79,-22.87 2.91,-23.35 5.38,-23.33 7.86,-23.30 10.02,-23.27 12.18,-23.24 14.86,-23.20 17.53,-23.16 20.14,-23.12 22.76,-23.08 25.65,-23.02 28.55,-22.95 30.99,-22.92 33.43,-22.89 35.56,-22.89 37.69,-22.89 40.32,-22.59 42.96,-22.29 46.40,-22.36 49.85,-22.43 52.44,-22.41 55.02,-22.38 58.24,-22.14 61.46,-21.90 64.71,-21.41 67.97,-20.93 71.12,-20.03 74.28,-19.12 76.67,-16.00 79.06,-12.88 79.61,-10.32 80.16,-7.75 80.18,-5.63 80.19,-3.50 80.20,-0.61 80.20,2.27 80.04,4.66 79.89,7.05 79.15,10.42 78.40,13.80 78.12,16.10 77.83,18.41 77.80,21.54 77.77,24.66 77.38,27.32 77.00,29.97 76.58,33.36 76.16,36.75 75.80,39.62 75.45,42.50 74.01,45.85 72.57,49.20 69.79,50.74 67.01,52.29 63.83,53.54 60.65,54.80 57.00,54.83 53.35,54.86 50.82,55.68 48.30,56.50 44.65,57.11 41.00,57.71 38.51,57.67 36.01,57.62 33.35,57.55 30.69,57.49 27.76,57.87 24.84,58.25 21.99,58.22 19.14,58.18 17.01,58.15 14.88,58.11 12.18,58.01 9.48,57.90 6.94,57.47 4.40,57.04 0.63,56.17 -3.13,55.30 -6.50,53.09 -9.88,50.87 -10.54,47.61 -11.19,44.36 -10.69,41.77 -10.19,39.18 -9.32,35.69 -8.46,32.20 -8.26,29.70 -8.05,27.20 -7.83,24.98 -7.60,22.76 -7.17,19.69 -6.73,16.61 -6.30,14.41 -5.87,12.21 -5.52,9.63 -5.16,7.06 -5.10,3.37 -5.03,-0.31 -4.92,-0.91 -4.81,-1.50 -4.56,-2.06 -4.31,-2.61 -3.93,-3.09 -3.55,-3.57 -3.07,-3.94 -2.59,-4.32 -2.04,-4.56 -1.49,-4.81 -0.89,-4.92 -0.29,-5.03 0.31,-4.99 0.91,-4.95 1.49,-4.77 2.07,-4.59 2.59,-4.27 3.11,-3.96 3.54,-3.53 3.97,-3.10 4.28,-2.58 4.60,-2.05 4.78,-1.47 4.96,-0.89 4.99,-0.29 5.03,0.31 5.03,0.31 L 5.03,0.31 Z"/></g><g transform="translate(318.40008544921875 25.199996948242188) rotate(0 38.39996337890625 33.600006103515625)" stroke="none"><path fill="#1e1e1e" d="M 5.12,0 Q 5.12,0 5.15,2.53 5.17,5.06 5.33,7.80 5.48,10.55 5.67,12.95 5.87,15.35 6.01,17.53 6.16,19.72 6.67,22.70 7.18,25.68 7.30,28.56 7.42,31.44 7.49,33.89 7.55,36.33 7.98,38.65 8.40,40.98 8.50,43.60 8.60,46.21 8.66,48.86 8.72,51.52 8.77,53.86 8.82,56.19 9.27,58.84 9.71,61.49 12.08,60.63 14.44,59.78 17.29,59.85 20.13,59.93 22.84,59.28 25.55,58.63 27.96,58.27 30.38,57.90 32.43,57.33 34.49,56.76 36.99,56.69 39.50,56.62 42.60,56.61 45.69,56.60 48.31,56.63 50.93,56.66 54.59,56.75 58.24,56.85 61.23,57.20 64.21,57.56 66.54,57.59 68.88,57.63 68.35,54.96 67.81,52.29 68.47,49.07 69.14,45.84 69.44,42.59 69.75,39.33 69.76,37.20 69.77,35.07 69.71,32.63 69.64,30.19 69.60,27.83 69.56,25.47 69.52,23.04 69.48,20.60 68.76,17.45 68.03,14.31 67.94,12.01 67.85,9.71 67.07,7.62 66.29,5.53 67.72,7.61 69.14,9.69 66.21,10.18 63.28,10.66 60.21,10.34 57.15,10.02 54.64,9.60 52.14,9.19 49.94,9.10 47.75,9.02 45.44,9.04 43.13,9.07 40.43,9.09 37.73,9.12 35.19,9.13 32.65,9.15 30.26,9.16 27.88,9.16 25.43,9.18 22.99,9.20 20.07,9.60 17.16,9.99 14.88,10.02 12.60,10.05 9.96,10.06 7.33,10.07 4.83,10.07 2.34,10.08 2.60,11.16 2.87,12.25 1.95,12.14 1.03,12.03 0.16,11.70 -0.70,11.37 -1.46,10.84 -2.22,10.32 -2.84,9.62 -3.45,8.93 -3.88,8.11 -4.31,7.29 -4.53,6.39 -4.76,5.49 -4.76,4.56 -4.76,3.64 -4.53,2.74 -4.31,1.84 -3.88,1.02 -3.45,0.20 -2.84,-0.49 -2.22,-1.18 -1.46,-1.71 -0.70,-2.23 0.16,-2.56 1.03,-2.89 1.95,-3.00 2.87,-3.12 5.97,-1.54 9.07,0.02 9.63,1.13 10.20,2.24 10.37,3.47 10.55,4.70 10.33,5.93 10.11,7.15 9.50,8.24 8.90,9.33 7.98,10.17 7.06,11.00 5.92,11.51 4.79,12.01 3.55,12.12 2.31,12.23 1.10,11.94 -0.10,11.65 -1.15,10.99 -2.21,10.33 -3.00,9.37 -3.78,8.40 -4.22,7.24 -4.66,6.08 -4.71,4.83 -4.75,3.59 -4.40,2.40 -4.04,1.21 -3.32,0.19 -2.61,-0.82 -1.60,-1.55 -0.60,-2.29 0.58,-2.66 1.76,-3.04 3.01,-3.01 4.25,-2.99 5.42,-2.57 6.59,-2.15 7.57,-1.38 8.54,-0.61 9.22,0.42 9.90,1.46 10.21,2.67 10.52,3.87 10.43,5.11 10.34,6.35 9.86,7.50 9.38,8.65 8.56,9.58 7.73,10.51 6.66,11.14 5.58,11.76 4.36,12.00 3.14,12.25 1.91,12.09 0.67,11.93 -0.44,11.39 -1.56,10.84 0.65,11.55 2.87,12.25 1.95,12.14 1.03,12.03 0.16,11.70 -0.70,11.37 -1.46,10.84 -2.22,10.32 -2.84,9.62 -3.45,8.93 -3.88,8.11 -4.31,7.29 -4.53,6.39 -4.76,5.49 -4.76,4.56 -4.76,3.64 -4.53,2.74 -4.31,1.84 -3.88,1.02 -3.45,0.20 -2.84,-0.49 -2.22,-1.18 -1.46,-1.71 -0.70,-2.23 0.16,-2.56 1.03,-2.89 1.95,-3.00 2.87,-3.12 2.60,-4.20 2.34,-5.28 4.83,-5.27 7.33,-5.27 9.96,-5.26 12.59,-5.25 15.06,-5.17 17.53,-5.10 19.86,-5.55 22.19,-6.01 24.61,-5.99 27.02,-5.97 29.19,-5.96 31.35,-5.95 34.04,-5.94 36.73,-5.92 39.07,-5.90 41.41,-5.88 43.81,-5.86 46.20,-5.84 48.65,-5.76 51.11,-5.68 53.94,-5.25 56.78,-4.82 60.03,-4.54 63.28,-4.26 66.35,-4.28 69.43,-4.30 71.72,-4.16 74.01,-4.01 76.38,-1.79 78.74,0.42 80.12,2.29 81.50,4.16 82.07,7.72 82.64,11.28 82.79,13.54 82.95,15.79 83.52,18.60 84.09,21.42 84.05,23.90 84.01,26.39 83.97,28.69 83.92,30.99 83.86,33.12 83.80,35.25 83.70,37.59 83.59,39.93 83.34,44.11 83.09,48.29 82.83,51.76 82.56,55.22 82.48,57.93 82.41,60.64 81.74,63.01 81.08,65.37 79.67,67.45 78.26,69.52 75.19,70.77 72.12,72.01 69.81,71.95 67.51,71.90 65.33,71.82 63.14,71.74 60.68,71.44 58.22,71.14 54.57,71.24 50.93,71.33 48.31,71.36 45.70,71.39 42.61,71.39 39.53,71.38 36.87,71.58 34.21,71.77 30.42,72.41 26.62,73.04 23.36,73.74 20.11,74.43 16.96,74.44 13.81,74.45 10.32,74.16 6.82,73.86 4.33,73.09 1.83,72.31 -0.08,70.67 -1.99,69.02 -3.24,65.40 -4.49,61.78 -5.04,58.17 -5.59,54.55 -5.54,52.17 -5.50,49.79 -5.44,47.38 -5.38,44.96 -5.33,42.41 -5.29,39.86 -5.60,37.33 -5.92,34.79 -5.85,32.26 -5.78,29.72 -5.69,27.16 -5.60,24.59 -5.88,22.15 -6.16,19.72 -6.01,17.53 -5.87,15.35 -5.67,12.95 -5.48,10.55 -5.33,7.80 -5.17,5.06 -5.15,2.53 -5.12,0 -5.04,-0.61 -4.97,-1.22 -4.75,-1.80 -4.53,-2.38 -4.18,-2.88 -3.83,-3.39 -3.37,-3.80 -2.91,-4.21 -2.36,-4.50 -1.81,-4.79 -1.21,-4.93 -0.61,-5.08 0.00,-5.08 0.61,-5.08 1.21,-4.93 1.81,-4.79 2.36,-4.50 2.91,-4.21 3.37,-3.80 3.83,-3.39 4.18,-2.88 4.53,-2.38 4.75,-1.80 4.97,-1.22 5.04,-0.61 5.12,0.00 5.12,0.00 L 5.12,0 Z"/></g></svg>