<svg version="1.1" xmlns="http://www.w3.org/2000/svg" viewBox="0 0 545.5999755859375 644.282949575981" width="545.5999755859375" height="644.282949575981" class="excalidraw-svg">
  <!-- svg-source:excalidraw -->
  
  <defs>
    <style class="style-fonts">
      @font-face {
        font-family: "Virgil";
        src: url("https://excalidraw.com/Virgil.woff2");
      }
      @font-face {
        font-family: "Cascadia";
        src: url("https://excalidraw.com/Cascadia.woff2");
      }
      @font-face {
        font-family: "Assistant";
        src: url("https://excalidraw.com/Assistant-Regular.woff2");
      }
    </style>
    
  </defs>
  <g transform="translate(26 233.4829312654341) rotate(0 100 161.20001220703125)" stroke="none"><path fill="#1e1e1e" d="M 3.11,0.21 Q 3.11,0.21 2.58,6.88 2.06,13.54 1.81,21.83 1.57,30.11 0.76,42.00 -0.04,53.89 -0.39,68.29 -0.74,82.69 -1.36,97.82 -1.98,112.96 -2.25,128.09 -2.52,143.22 -2.64,158.40 -2.76,173.57 -2.81,188.07 -2.86,202.56 -2.89,216.78 -2.91,230.99 -3.15,244.18 -3.40,257.37 -3.50,269.17 -3.60,280.96 -4.11,292.47 -4.62,303.97 -5.06,314.59 -5.51,325.21 -6.39,334.39 -7.28,343.58 -7.88,350.88 -8.48,358.19 -9.20,363.89 -9.93,369.59 -10.46,374.04 -10.99,378.50 -11.07,381.95 -11.14,385.40 -11.28,388.36 -11.42,391.33 -11.60,394.39 -11.79,397.45 -11.63,398.92 -11.48,400.38 -11.57,400.91 -11.67,401.45 -11.89,401.94 -12.11,402.44 -12.44,402.87 -12.77,403.30 -13.20,403.64 -13.63,403.97 -14.12,404.20 -14.61,404.42 -15.15,404.53 -15.68,404.63 -16.22,404.60 -16.76,404.57 -17.28,404.41 -17.80,404.25 -18.27,403.97 -18.74,403.69 -19.12,403.31 -19.51,402.93 -19.79,402.47 -20.08,402.00 -20.24,401.48 -20.40,400.97 -20.44,400.43 -20.48,399.88 -19.45,397.97 -18.43,396.07 -15.79,393.03 -13.15,389.99 -10.13,387.69 -7.10,385.39 -1.16,381.94 4.77,378.49 14.54,373.86 24.30,369.22 36.64,364.97 48.98,360.72 60.91,357.36 72.84,353.99 84.65,351.44 96.45,348.88 108.20,347.12 119.94,345.35 130.73,344.39 141.52,343.43 149.81,343.03 158.09,342.63 164.38,342.48 170.67,342.32 175.65,342.26 180.62,342.20 184.12,342.02 187.61,341.84 190.02,341.61 192.42,341.37 195.10,341.03 197.77,340.70 197.98,337.89 198.18,335.09 198.90,332.30 199.62,329.51 200.66,325.49 201.70,321.46 202.94,314.49 204.18,307.51 205.94,296.03 207.69,284.54 208.94,271.01 210.20,257.48 211.00,242.32 211.80,227.16 212.17,211.30 212.55,195.44 212.73,179.27 212.91,163.10 213.00,145.65 213.09,128.20 213.14,110.89 213.19,93.58 212.76,76.60 212.33,59.62 211.24,44.17 210.14,28.72 208.99,15.01 207.84,1.31 206.67,-9.78 205.49,-20.87 204.76,-30.24 204.03,-39.60 203.27,-46.98 202.50,-54.36 202.17,-59.40 201.84,-64.44 201.49,-67.50 201.14,-70.56 200.89,-73.23 200.63,-75.90 200.33,-76.40 200.04,-76.89 199.91,-77.45 199.78,-78.02 199.84,-78.59 199.90,-79.16 200.14,-79.69 200.38,-80.21 200.78,-80.63 201.17,-81.05 201.68,-81.33 202.19,-81.60 202.76,-81.69 203.33,-81.79 203.90,-81.70 204.47,-81.61 204.98,-81.34 205.49,-81.07 205.89,-80.65 206.29,-80.24 206.53,-79.71 206.77,-79.19 206.84,-78.62 206.90,-78.04 206.78,-77.48 206.66,-76.92 206.36,-76.42 206.07,-75.93 205.63,-75.55 205.19,-75.17 204.66,-74.96 204.12,-74.74 203.55,-74.71 202.97,-74.68 202.41,-74.83 201.86,-74.98 201.38,-75.30 200.90,-75.62 200.55,-76.08 200.20,-76.54 200.01,-77.09 199.83,-77.63 199.82,-78.21 199.82,-78.79 200.00,-79.33 200.19,-79.88 200.53,-80.34 200.88,-80.80 201.36,-81.13 201.83,-81.45 202.39,-81.61 202.94,-81.77 203.52,-81.74 204.10,-81.71 204.63,-81.50 205.17,-81.29 205.61,-80.91 206.05,-80.54 206.05,-80.54 206.05,-80.54 206.65,-75.69 207.26,-70.84 207.19,-67.81 207.12,-64.79 207.44,-59.85 207.77,-54.91 208.55,-47.46 209.33,-40.02 210.06,-30.73 210.80,-21.44 211.99,-10.29 213.19,0.85 214.36,14.59 215.53,28.33 216.66,43.91 217.79,59.48 218.26,76.53 218.73,93.59 218.74,110.90 218.74,128.21 218.72,145.68 218.70,163.15 218.63,179.35 218.55,195.56 218.32,211.50 218.08,227.45 217.47,242.74 216.85,258.03 215.83,271.77 214.82,285.52 213.42,297.08 212.01,308.64 211.22,315.84 210.42,323.04 209.93,327.48 209.45,331.92 208.73,334.99 208.02,338.05 207.29,340.17 206.57,342.30 205.25,344.75 203.92,347.20 200.86,348.05 197.79,348.90 195.13,348.58 192.46,348.26 190.07,348.05 187.67,347.84 184.19,347.73 180.71,347.62 175.77,347.71 170.83,347.80 164.60,348.01 158.38,348.21 150.21,348.66 142.05,349.10 131.44,350.13 120.84,351.16 109.31,353.00 97.78,354.83 86.21,357.50 74.64,360.16 62.96,363.67 51.28,367.19 39.44,371.54 27.61,375.90 18.39,380.68 9.16,385.47 3.97,389.04 -1.21,392.61 -3.82,394.91 -6.43,397.22 -8.96,398.80 -11.48,400.38 -11.57,400.91 -11.67,401.45 -11.89,401.94 -12.11,402.44 -12.44,402.87 -12.77,403.30 -13.20,403.64 -13.62,403.97 -14.12,404.20 -14.61,404.42 -15.15,404.53 -15.68,404.63 -16.22,404.60 -16.76,404.57 -17.28,404.41 -17.80,404.25 -18.27,403.97 -18.74,403.69 -19.12,403.31 -19.51,402.93 -19.79,402.47 -20.07,402.00 -20.24,401.49 -20.40,400.97 -20.44,400.43 -20.48,399.88 -20.11,398.07 -19.74,396.26 -18.87,393.42 -18.01,390.57 -17.49,387.80 -16.98,385.02 -16.60,381.45 -16.22,377.88 -15.68,373.40 -15.14,368.92 -14.43,363.34 -13.72,357.75 -13.12,350.41 -12.52,343.07 -11.64,334.03 -10.77,324.99 -10.33,314.36 -9.89,303.74 -9.39,292.33 -8.89,280.92 -8.79,269.10 -8.69,257.28 -8.45,244.13 -8.22,230.98 -8.21,216.76 -8.19,202.55 -8.15,188.04 -8.11,173.53 -8.02,158.33 -7.92,143.13 -7.68,127.94 -7.43,112.74 -6.85,97.65 -6.27,82.56 -5.97,68.04 -5.66,53.52 -4.93,41.75 -4.19,29.98 -4.05,21.55 -3.90,13.13 -3.50,6.45 -3.11,-0.21 -3.04,-0.58 -2.97,-0.95 -2.81,-1.29 -2.65,-1.63 -2.42,-1.93 -2.19,-2.22 -1.89,-2.45 -1.59,-2.68 -1.24,-2.83 -0.90,-2.99 -0.53,-3.05 -0.16,-3.12 0.21,-3.09 0.58,-3.06 0.94,-2.95 1.30,-2.83 1.62,-2.64 1.94,-2.44 2.21,-2.17 2.47,-1.90 2.66,-1.58 2.85,-1.25 2.96,-0.89 3.07,-0.53 3.09,-0.16 3.11,0.21 3.11,0.21 L 3.11,0.21 Z"/></g><g transform="translate(332.4000244140625 137.48294652422317) rotate(0 96 228.79999542236328)" stroke="none"><path fill="#1e1e1e" d="M 3.12,0 Q 3.12,0 3.05,13.10 2.98,26.21 2.70,42.62 2.42,59.02 2.29,75.40 2.16,91.78 1.63,107.52 1.10,123.26 0.64,139.36 0.18,155.46 -0.48,170.61 -1.14,185.75 -1.89,201.61 -2.63,217.48 -3.18,232.48 -3.73,247.49 -3.96,261.44 -4.20,275.38 -4.76,288.94 -5.33,302.51 -5.56,313.75 -5.80,324.99 -6.37,335.12 -6.93,345.24 -7.17,353.86 -7.41,362.47 -7.74,370.08 -8.08,377.69 -8.22,383.65 -8.36,389.61 -8.42,393.98 -8.48,398.35 -8.39,402.05 -8.29,405.74 -8.14,408.92 -7.98,412.10 -7.85,415.29 -7.72,418.48 -7.59,421.45 -7.46,424.41 -7.38,427.51 -7.29,430.61 -7.17,433.31 -7.05,436.01 -6.96,438.76 -6.87,441.52 -6.81,444.30 -6.74,447.08 -6.19,450.86 -5.63,454.64 -5.06,457.32 -4.49,459.99 -7.48,459.57 -10.48,459.15 -6.06,456.35 -1.64,453.55 3.32,451.50 8.28,449.44 16.63,446.54 24.97,443.65 33.54,440.71 42.11,437.76 50.23,435.41 58.35,433.05 66.67,430.95 74.99,428.85 82.77,427.51 90.55,426.18 97.81,425.41 105.08,424.64 111.56,423.88 118.04,423.12 123.89,422.80 129.73,422.49 135.15,422.14 140.57,421.79 146.16,421.65 151.74,421.50 156.35,421.22 160.95,420.94 164.80,420.73 168.66,420.51 172.76,420.24 176.86,419.97 179.33,419.62 181.80,419.26 184.45,418.84 187.09,418.42 188.46,416.23 189.83,414.05 191.12,411.80 192.41,409.56 192.68,406.80 192.96,404.05 193.37,401.56 193.77,399.06 195.02,394.86 196.26,390.66 196.88,385.59 197.50,380.53 198.11,373.66 198.72,366.79 199.06,357.03 199.39,347.27 199.35,335.56 199.32,323.84 198.66,311.78 198.00,299.72 197.28,286.28 196.57,272.83 195.60,260.02 194.63,247.21 193.54,234.86 192.45,222.52 191.54,209.42 190.62,196.32 189.55,183.18 188.49,170.05 187.58,158.02 186.67,145.98 186.05,133.24 185.44,120.50 184.72,108.68 184.01,96.86 183.70,86.73 183.40,76.59 183.27,67.91 183.14,59.23 183.09,51.63 183.04,44.03 183.01,37.58 182.99,31.13 183.22,26.03 183.44,20.93 184.00,16.60 184.57,12.28 184.84,9.06 185.12,5.84 185.34,3.47 185.56,1.10 186.14,-1.79 186.73,-4.69 186.86,-5.94 186.98,-7.20 187.14,-7.86 187.30,-8.52 187.66,-9.10 188.01,-9.68 188.54,-10.11 189.06,-10.54 189.70,-10.78 190.33,-11.03 191.01,-11.05 191.69,-11.08 192.34,-10.89 193.00,-10.70 193.55,-10.31 194.11,-9.92 194.51,-9.37 194.92,-8.82 195.12,-8.18 195.33,-7.53 195.32,-6.85 195.31,-6.17 195.08,-5.53 194.86,-4.89 194.44,-4.35 194.02,-3.82 193.45,-3.45 192.88,-3.07 192.23,-2.90 191.57,-2.73 190.89,-2.78 190.21,-2.82 189.58,-3.08 188.96,-3.34 188.45,-3.79 187.93,-4.24 187.59,-4.83 187.25,-5.41 187.11,-6.08 186.98,-6.75 187.06,-7.42 187.15,-8.10 187.44,-8.71 187.73,-9.32 188.21,-9.81 188.68,-10.29 189.29,-10.60 189.89,-10.91 190.57,-11.01 191.24,-11.11 191.91,-10.99 192.58,-10.87 193.17,-10.54 193.77,-10.22 194.23,-9.72 194.69,-9.22 194.96,-8.60 195.24,-7.97 195.30,-7.30 195.37,-6.62 195.37,-6.62 195.37,-6.62 194.91,-4.19 194.46,-1.75 193.42,0.31 192.37,2.39 191.73,4.55 191.09,6.72 190.44,9.84 189.79,12.96 189.24,17.06 188.70,21.16 188.48,26.14 188.27,31.11 188.29,37.55 188.32,44.00 188.38,51.58 188.43,59.15 188.57,67.79 188.70,76.43 189.01,86.48 189.33,96.53 190.06,108.39 190.79,120.24 191.42,132.90 192.05,145.57 192.99,157.58 193.92,169.60 195.03,182.76 196.14,195.92 197.10,208.96 198.06,222.01 199.23,234.38 200.39,246.75 201.46,259.62 202.54,272.48 203.39,285.91 204.24,299.33 205.09,311.54 205.94,323.75 206.23,335.57 206.52,347.39 206.52,357.31 206.53,367.22 206.38,374.16 206.22,381.11 206.11,386.89 206.01,392.67 205.55,396.69 205.08,400.71 204.33,405.32 203.58,409.92 202.91,412.44 202.24,414.96 200.38,417.58 198.53,420.19 195.78,422.69 193.04,425.19 190.14,425.81 187.25,426.44 184.69,426.16 182.13,425.88 179.69,425.77 177.25,425.66 173.05,425.96 168.85,426.25 165.07,426.29 161.29,426.33 156.60,426.65 151.90,426.96 146.43,427.14 140.95,427.31 135.51,427.72 130.07,428.12 124.41,428.49 118.76,428.87 112.26,429.73 105.76,430.59 98.72,431.47 91.68,432.35 84.20,433.81 76.71,435.27 68.60,437.59 60.49,439.90 52.67,442.52 44.86,445.15 36.50,448.51 28.14,451.88 20.47,455.16 12.79,458.43 8.21,461.18 3.64,463.92 1.58,465.02 -0.47,466.11 -2.74,467.76 -5.01,469.41 -8.81,469.18 -12.60,468.94 -13.88,466.15 -15.16,463.36 -15.10,461.07 -15.03,458.77 -15.21,455.28 -15.40,451.80 -15.53,449.44 -15.65,447.09 -15.58,444.30 -15.51,441.52 -15.42,438.76 -15.33,436.01 -15.22,433.31 -15.10,430.61 -15.01,427.51 -14.92,424.41 -14.79,421.44 -14.65,418.47 -14.52,415.27 -14.38,412.08 -14.20,408.89 -14.02,405.70 -13.88,401.99 -13.74,398.28 -13.68,393.88 -13.62,389.49 -13.48,383.47 -13.33,377.46 -13.01,369.90 -12.68,362.33 -12.44,353.64 -12.20,344.95 -11.64,334.91 -11.09,324.88 -10.85,313.58 -10.61,302.29 -10.06,288.79 -9.51,275.29 -9.28,261.30 -9.06,247.30 -8.52,232.26 -7.98,217.23 -7.26,201.37 -6.53,185.52 -5.90,170.42 -5.27,155.31 -4.84,139.20 -4.42,123.09 -3.94,107.42 -3.47,91.75 -3.41,75.34 -3.34,58.94 -3.16,42.58 -2.98,26.21 -3.05,13.10 -3.12,0 -3.07,-0.37 -3.03,-0.74 -2.90,-1.09 -2.76,-1.45 -2.55,-1.76 -2.33,-2.07 -2.05,-2.32 -1.77,-2.57 -1.44,-2.74 -1.10,-2.92 -0.74,-3.01 -0.37,-3.10 0.00,-3.10 0.37,-3.10 0.74,-3.01 1.10,-2.92 1.44,-2.74 1.77,-2.57 2.05,-2.32 2.33,-2.07 2.55,-1.76 2.76,-1.45 2.90,-1.09 3.03,-0.74 3.07,-0.37 3.12,0.00 3.12,0.00 L 3.12,0 Z"/></g><g transform="translate(103.99055070303552 460.09214396062407) rotate(0 4.773736050623029 21.140734455573806)" stroke="none"><path fill="#1e1e1e" d="M -4.20,-3.15 Q -4.20,-3.15 -3.06,-4.78 -1.91,-6.41 -0.19,-8.62 1.52,-10.82 2.84,-12.00 4.17,-13.17 4.72,-13.64 5.27,-14.11 5.91,-14.43 6.56,-14.75 7.26,-14.91 7.96,-15.07 8.69,-15.06 9.41,-15.04 10.10,-14.85 10.80,-14.67 11.43,-14.32 12.06,-13.97 12.60,-13.48 13.13,-13.00 13.52,-12.39 13.92,-11.79 14.16,-11.11 14.41,-10.43 14.48,-9.72 14.55,-9.00 14.45,-8.28 14.35,-7.57 14.08,-6.90 13.81,-6.23 13.39,-5.64 12.97,-5.06 13.81,-7.58 14.65,-10.09 15.69,-7.02 16.73,-3.95 16.94,0.02 17.16,3.99 17.21,7.21 17.26,10.43 17.36,12.86 17.46,15.29 17.51,17.63 17.55,19.97 17.61,23.36 17.66,26.74 17.70,30.19 17.73,33.63 17.21,35.89 16.69,38.15 16.58,40.27 16.46,42.39 15.78,44.51 15.10,46.62 13.33,49.81 11.56,53.00 9.44,54.24 7.31,55.48 4.37,56.31 1.42,57.13 -1.23,57.35 -3.90,57.57 -6.05,57.60 -8.19,57.63 -10.26,58.13 -12.34,58.62 -15.14,58.84 -17.94,59.06 -18.62,59.08 -19.31,59.09 -20.18,59.00 -21.05,58.91 -21.88,58.61 -22.70,58.32 -23.43,57.83 -24.16,57.35 -24.76,56.70 -25.35,56.06 -25.77,55.29 -26.19,54.52 -26.42,53.67 -26.65,52.83 -26.66,51.95 -26.68,51.07 -26.48,50.22 -26.29,49.36 -25.90,48.58 -25.50,47.80 -24.93,47.13 -24.37,46.46 -23.65,45.95 -22.94,45.44 -22.13,45.11 -21.31,44.79 -20.44,44.66 -19.58,44.54 -17.05,44.57 -14.53,44.60 -12.31,44.68 -10.09,44.76 -7.19,44.93 -4.29,45.11 -0.63,45.14 3.02,45.18 5.53,45.15 8.03,45.12 10.16,45.08 12.29,45.04 14.34,44.29 16.39,43.54 18.64,41.63 20.90,39.72 25.00,38.83 29.10,37.93 30.24,38.05 31.39,38.16 32.44,38.63 33.49,39.10 34.33,39.89 35.18,40.67 35.73,41.68 36.27,42.69 36.47,43.83 36.67,44.96 36.50,46.10 36.32,47.24 35.79,48.26 35.26,49.28 34.43,50.08 33.61,50.88 32.57,51.38 31.53,51.87 30.38,52.00 29.24,52.14 28.11,51.90 26.99,51.67 26.00,51.08 25.00,50.50 24.25,49.63 23.50,48.76 23.06,47.70 22.62,46.63 22.55,45.48 22.47,44.33 22.77,43.22 23.07,42.11 23.71,41.15 24.34,40.19 25.25,39.49 26.16,38.78 27.25,38.40 28.33,38.02 29.49,38.01 30.64,38.00 31.73,38.36 32.83,38.71 33.75,39.40 34.67,40.09 35.33,41.04 35.98,41.98 36.30,43.09 36.62,44.19 36.57,45.34 36.52,46.49 36.10,47.57 35.69,48.64 34.95,49.53 34.21,50.41 33.23,51.01 32.25,51.62 31.13,51.87 30.01,52.13 30.01,52.13 30.01,52.13 28.33,52.39 26.64,52.64 24.44,54.03 22.24,55.41 19.80,56.54 17.36,57.68 14.83,58.14 12.29,58.60 10.16,58.57 8.03,58.53 5.53,58.50 3.02,58.47 -0.63,58.51 -4.29,58.54 -7.19,58.71 -10.09,58.89 -12.31,58.97 -14.53,59.05 -16.92,59.07 -19.31,59.09 -20.18,59.00 -21.05,58.91 -21.88,58.61 -22.70,58.32 -23.43,57.83 -24.16,57.35 -24.76,56.70 -25.35,56.06 -25.77,55.29 -26.19,54.52 -26.42,53.67 -26.65,52.83 -26.66,51.95 -26.68,51.07 -26.48,50.22 -26.29,49.36 -25.90,48.58 -25.50,47.80 -24.94,47.13 -24.37,46.46 -23.65,45.95 -22.94,45.44 -22.13,45.11 -21.31,44.79 -20.45,44.66 -19.58,44.54 -17.40,44.60 -15.22,44.66 -11.75,43.97 -8.29,43.27 -5.63,43.24 -2.96,43.21 -0.67,43.46 1.61,43.71 2.19,41.41 2.76,39.12 3.42,36.30 4.08,33.48 4.12,30.11 4.15,26.74 4.21,23.36 4.26,19.97 4.31,17.63 4.35,15.30 4.44,12.90 4.53,10.50 4.54,7.36 4.55,4.23 4.54,1.47 4.53,-1.27 4.07,-3.38 3.61,-5.49 3.89,-9.33 4.17,-13.17 4.72,-13.64 5.27,-14.11 5.91,-14.43 6.56,-14.75 7.26,-14.91 7.96,-15.07 8.68,-15.06 9.41,-15.04 10.10,-14.86 10.80,-14.67 11.43,-14.32 12.06,-13.97 12.59,-13.48 13.13,-13.00 13.52,-12.39 13.92,-11.79 14.16,-11.11 14.41,-10.43 14.48,-9.72 14.55,-9.00 14.45,-8.28 14.35,-7.57 14.08,-6.90 13.81,-6.23 13.39,-5.64 12.97,-5.06 11.39,-4.05 9.82,-3.03 8.22,-1.44 6.61,0.14 5.41,1.64 4.20,3.15 3.76,3.61 3.32,4.07 2.79,4.40 2.25,4.74 1.65,4.95 1.05,5.15 0.42,5.20 -0.20,5.25 -0.83,5.15 -1.45,5.05 -2.04,4.80 -2.62,4.55 -3.13,4.17 -3.63,3.79 -4.04,3.30 -4.44,2.81 -4.71,2.24 -4.98,1.66 -5.11,1.04 -5.24,0.42 -5.21,-0.20 -5.19,-0.83 -5.01,-1.44 -4.83,-2.05 -4.52,-2.60 -4.20,-3.15 -4.20,-3.15 L -4.20,-3.15 Z"/></g><g transform="translate(91.71539295051639 322.3366824465669) rotate(0 15.002999491553226 51.14683749718762)" stroke="none"><path fill="#1e1e1e" d="M 2.43,-2.43 Q 2.43,-2.43 4.51,-0.56 6.59,1.29 8.55,4.43 10.52,7.57 11.98,11.84 13.44,16.12 14.42,20.35 15.40,24.59 16.16,30.41 16.91,36.22 17.21,41.89 17.50,47.55 17.59,53.09 17.69,58.64 17.71,62.95 17.74,67.26 17.84,71.05 17.94,74.85 18.15,77.64 18.36,80.44 18.14,82.77 17.92,85.11 17.47,88.29 17.01,91.48 16.47,93.92 15.93,96.35 13.77,99.33 11.62,102.31 9.33,103.69 7.03,105.07 5.06,105.91 3.09,106.76 -1.15,107.03 -5.40,107.30 -7.72,107.45 -10.03,107.60 -12.99,107.80 -15.95,108.00 -20.15,106.93 -24.36,105.87 -26.51,103.61 -28.66,101.35 -29.09,99.04 -29.51,96.73 -29.05,94.30 -28.60,91.87 -26.40,88.37 -24.21,84.87 -22.14,83.16 -20.07,81.45 -16.76,79.40 -13.44,77.35 -11.29,76.45 -9.15,75.56 -7.03,75.06 -4.91,74.56 -1.57,74.28 1.76,74.00 4.62,73.93 7.47,73.87 9.64,74.62 11.81,75.37 13.88,77.18 15.95,78.99 18.80,81.83 21.66,84.67 24.39,87.44 27.12,90.21 29.89,93.49 32.67,96.77 34.25,94.52 35.84,92.26 37.84,89.18 39.84,86.11 42.49,80.92 45.14,75.73 46.11,73.38 47.08,71.02 47.52,70.34 47.96,69.65 48.59,69.14 49.22,68.63 49.99,68.35 50.75,68.07 51.57,68.05 52.38,68.03 53.16,68.27 53.94,68.50 54.60,68.98 55.26,69.45 55.73,70.12 56.21,70.78 56.45,71.56 56.68,72.33 56.66,73.15 56.64,73.96 56.36,74.73 56.08,75.49 55.57,76.12 55.06,76.76 54.37,77.20 53.69,77.63 52.90,77.83 52.11,78.03 51.29,77.96 50.48,77.89 49.74,77.57 48.99,77.25 48.38,76.71 47.78,76.16 47.38,75.45 46.98,74.74 46.82,73.94 46.67,73.14 46.78,72.34 46.89,71.53 47.25,70.80 47.61,70.07 48.19,69.50 48.77,68.92 49.50,68.56 50.23,68.20 51.03,68.09 51.84,67.98 52.64,68.14 53.44,68.29 54.15,68.69 54.85,69.09 55.40,69.70 55.94,70.30 56.26,71.05 56.58,71.80 56.65,72.61 56.71,73.42 56.52,74.21 56.32,75.00 56.32,75.00 56.32,75.00 55.28,77.32 54.23,79.65 52.14,85.46 50.05,91.28 48.29,95.63 46.53,99.99 44.18,103.15 41.83,106.32 37.72,107.70 33.60,109.08 30.84,108.70 28.09,108.32 25.94,106.99 23.79,105.66 21.86,103.56 19.92,101.45 17.55,99.10 15.18,96.74 12.43,94.08 9.68,91.43 8.20,89.25 6.71,87.08 4.50,87.09 2.29,87.10 -0.03,87.19 -2.36,87.28 -4.72,87.97 -7.08,88.66 -9.52,90.08 -11.95,91.51 -14.06,94.01 -16.16,96.51 -13.38,96.57 -10.60,96.63 -8.43,96.55 -6.25,96.47 -3.63,96.20 -1.00,95.93 1.12,95.12 3.25,94.31 5.62,92.89 7.98,91.47 8.88,89.31 9.78,87.15 10.69,83.79 11.60,80.44 11.79,77.67 11.97,74.89 12.02,71.12 12.07,67.34 11.97,63.07 11.87,58.79 11.67,53.36 11.46,47.93 11.05,42.53 10.64,37.14 9.75,31.69 8.86,26.24 7.80,22.43 6.75,18.62 5.27,15.03 3.79,11.44 2.51,8.99 1.24,6.54 -0.59,4.49 -2.43,2.43 -2.68,2.10 -2.94,1.78 -3.11,1.40 -3.28,1.02 -3.36,0.61 -3.43,0.20 -3.40,-0.20 -3.38,-0.62 -3.26,-1.01 -3.13,-1.41 -2.92,-1.76 -2.70,-2.12 -2.41,-2.41 -2.12,-2.70 -1.76,-2.92 -1.41,-3.13 -1.01,-3.26 -0.62,-3.38 -0.20,-3.40 0.20,-3.43 0.61,-3.36 1.02,-3.28 1.40,-3.11 1.78,-2.94 2.10,-2.68 2.43,-2.43 2.43,-2.43 L 2.43,-2.43 Z"/></g><g transform="translate(83.53181570416052 176.39769571540756) rotate(0 3.409789166479186 37.50768083127093)" stroke="none"><path fill="#1e1e1e" d="M 4.64,-2.32 Q 4.64,-2.32 5.50,-0.78 6.35,0.75 7.72,3.01 9.09,5.27 9.45,7.67 9.81,10.07 8.97,12.33 8.12,14.59 5.71,16.78 3.30,18.97 0.34,21.59 -2.60,24.20 -4.52,25.29 -6.44,26.37 -8.96,28.45 -11.49,30.53 -13.73,31.71 -15.97,32.90 -17.86,33.90 -19.74,34.90 -21.28,29.88 -22.81,24.86 -25.88,24.59 -28.95,24.31 -24.88,23.06 -20.81,21.80 -17.24,21.70 -13.66,21.61 -9.01,22.14 -4.36,22.67 -2.29,23.36 -0.23,24.05 3.13,24.80 6.50,25.54 9.88,26.87 13.27,28.20 15.65,29.51 18.02,30.83 21.02,32.39 24.01,33.95 26.37,35.67 28.73,37.38 30.66,38.42 32.58,39.45 34.12,40.96 35.66,42.46 37.93,44.72 40.20,46.98 40.57,49.71 40.94,52.43 40.19,54.75 39.44,57.06 38.09,59.01 36.73,60.97 34.18,62.89 31.62,64.82 28.65,66.99 25.68,69.15 22.40,70.61 19.13,72.06 16.58,73.03 14.03,74.00 10.40,75.91 6.78,77.82 3.73,79.19 0.69,80.56 -2.17,80.97 -5.05,81.37 -7.74,81.47 -10.42,81.56 -11.47,81.40 -12.52,81.23 -13.46,80.74 -14.40,80.25 -15.14,79.49 -15.87,78.72 -16.32,77.76 -16.77,76.80 -16.89,75.75 -17.02,74.69 -16.79,73.66 -16.57,72.62 -16.03,71.71 -15.49,70.80 -14.69,70.10 -13.88,69.41 -12.90,69.01 -11.92,68.61 -10.86,68.55 -9.80,68.49 -8.78,68.76 -7.75,69.04 -6.87,69.63 -5.99,70.22 -5.34,71.06 -4.69,71.90 -4.35,72.90 -4.00,73.91 -4.00,74.97 -3.99,76.03 -4.32,77.03 -4.65,78.04 -5.29,78.89 -5.93,79.74 -6.80,80.34 -7.68,80.94 -8.70,81.23 -9.72,81.52 -10.78,81.47 -11.84,81.42 -12.82,81.03 -13.81,80.65 -14.62,79.97 -15.44,79.28 -15.99,78.38 -16.54,77.47 -16.78,76.44 -17.01,75.40 -16.90,74.35 -16.80,73.29 -16.36,72.33 -15.92,71.36 -15.19,70.59 -14.47,69.81 -13.53,69.31 -12.60,68.81 -11.55,68.63 -10.51,68.45 -10.51,68.45 -10.51,68.45 -8.87,68.45 -7.24,68.45 -4.60,68.37 -1.97,68.29 1.16,66.69 4.30,65.08 6.76,63.68 9.22,62.29 11.33,61.35 13.44,60.40 17.13,58.02 20.83,55.64 24.59,54.31 28.35,52.97 26.56,51.18 24.77,49.39 21.39,47.53 18.01,45.66 14.85,44.03 11.70,42.41 8.25,40.93 4.81,39.45 2.63,38.60 0.45,37.75 -3.26,36.97 -6.99,36.19 -10.19,35.98 -13.39,35.77 -16.21,35.57 -19.03,35.37 -22.36,36.24 -25.69,37.11 -28.28,36.85 -30.87,36.60 -29.18,30.02 -27.48,23.44 -24.29,22.21 -21.11,20.97 -18.31,19.01 -15.50,17.06 -12.57,15.10 -9.64,13.15 -7.87,11.97 -6.09,10.79 -3.30,10.48 -0.51,10.17 -1.87,7.84 -3.22,5.52 -3.93,3.92 -4.64,2.32 -4.85,1.73 -5.06,1.14 -5.12,0.52 -5.19,-0.10 -5.10,-0.72 -5.01,-1.34 -4.78,-1.92 -4.54,-2.50 -4.18,-3.01 -3.81,-3.51 -3.34,-3.92 -2.86,-4.33 -2.30,-4.61 -1.74,-4.89 -1.13,-5.02 -0.52,-5.16 0.10,-5.15 0.72,-5.14 1.33,-4.97 1.93,-4.81 2.48,-4.51 3.03,-4.21 3.49,-3.78 3.95,-3.36 4.29,-2.84 4.64,-2.32 4.64,-2.32 L 4.64,-2.32 Z"/></g><g transform="translate(406.77989112149044 405.5355172969573) rotate(0 29.32420764342237 58.648389272217855)" stroke="none"><path fill="#1e1e1e" d="M 1.51,-4.11 Q 1.51,-4.11 8.88,-1.15 16.25,1.80 21.79,4.34 27.33,6.88 32.13,9.63 36.92,12.38 40.16,14.26 43.40,16.13 46.44,18.11 49.48,20.09 51.30,21.22 53.12,22.35 54.82,23.63 56.53,24.91 58.52,26.98 60.52,29.04 61.23,33.08 61.94,37.13 60.42,38.79 58.90,40.45 55.88,42.32 52.87,44.19 49.07,45.74 45.27,47.29 42.51,49.02 39.74,50.76 37.56,51.69 35.38,52.62 32.55,54.02 29.73,55.43 28.13,57.07 26.52,58.72 26.03,55.52 25.54,52.32 28.80,53.75 32.06,55.18 35.07,57.16 38.09,59.14 41.17,61.89 44.25,64.64 46.67,66.96 49.10,69.29 51.42,72.05 53.74,74.82 55.85,77.59 57.96,80.36 59.73,82.76 61.50,85.17 62.61,87.94 63.73,90.71 64.46,93.82 65.20,96.93 65.26,99.25 65.32,101.58 64.30,106.14 63.28,110.71 61.67,112.53 60.07,114.35 56.51,117.02 52.96,119.69 50.83,120.37 48.70,121.05 46.43,121.33 44.16,121.60 40.81,122.32 37.45,123.03 35.30,123.14 33.15,123.25 30.67,123.25 28.18,123.26 23.75,122.84 19.31,122.43 16.84,121.17 14.37,119.91 11.40,119.20 8.43,118.50 6.01,117.80 3.59,117.09 -0.64,115.28 -4.88,113.47 -6.91,109.06 -8.94,104.66 -9.03,103.59 -9.11,102.53 -8.85,101.49 -8.59,100.45 -8.01,99.55 -7.43,98.66 -6.59,97.99 -5.76,97.32 -4.75,96.96 -3.75,96.59 -2.68,96.57 -1.61,96.54 -0.59,96.86 0.42,97.18 1.28,97.80 2.15,98.43 2.77,99.30 3.39,100.17 3.70,101.19 4.01,102.22 3.98,103.28 3.94,104.35 3.57,105.35 3.20,106.36 2.53,107.19 1.86,108.02 0.95,108.59 0.05,109.16 -0.98,109.42 -2.02,109.67 -3.08,109.58 -4.14,109.49 -5.13,109.06 -6.11,108.64 -6.90,107.92 -7.69,107.20 -8.21,106.27 -8.74,105.34 -8.93,104.29 -9.13,103.24 -8.98,102.18 -8.84,101.12 -8.36,100.17 -7.88,99.21 -7.12,98.46 -6.36,97.71 -5.40,97.23 -4.44,96.76 -3.38,96.62 -2.32,96.48 -1.28,96.69 -0.23,96.89 0.69,97.42 1.62,97.95 2.33,98.75 3.04,99.55 3.46,100.53 3.88,101.51 3.88,101.51 3.88,101.51 4.09,102.99 4.31,104.47 7.04,105.27 9.78,106.08 12.37,106.94 14.96,107.80 18.43,109.18 21.89,110.57 24.95,110.90 28.01,111.22 30.32,111.15 32.64,111.09 35.71,110.96 38.79,110.83 40.91,110.30 43.04,109.76 46.39,109.19 49.74,108.62 52.27,106.63 54.79,104.65 55.14,101.90 55.49,99.15 54.52,94.98 53.55,90.81 51.96,88.63 50.37,86.45 48.27,83.98 46.16,81.50 44.10,79.30 42.04,77.10 39.71,75.13 37.37,73.16 34.77,71.33 32.17,69.50 29.21,68.08 26.25,66.67 23.00,65.00 19.76,63.34 17.89,60.72 16.01,58.11 16.71,53.99 17.41,49.87 19.33,48.71 21.24,47.56 22.86,46.12 24.49,44.68 26.40,43.69 28.32,42.70 30.65,42.02 32.98,41.34 36.81,39.14 40.64,36.94 44.94,35.26 49.24,33.57 51.39,32.41 53.55,31.26 54.26,33.65 54.97,36.03 52.96,33.63 50.94,31.23 48.24,28.56 45.55,25.90 42.75,23.93 39.95,21.97 36.85,20.09 33.74,18.21 29.14,15.84 24.53,13.46 19.04,11.31 13.54,9.17 6.01,6.64 -1.51,4.11 -1.98,3.87 -2.45,3.63 -2.85,3.28 -3.25,2.94 -3.56,2.50 -3.86,2.07 -4.06,1.58 -4.25,1.09 -4.32,0.56 -4.39,0.04 -4.33,-0.48 -4.27,-1.01 -4.08,-1.50 -3.90,-2.00 -3.61,-2.44 -3.31,-2.88 -2.92,-3.23 -2.52,-3.58 -2.06,-3.84 -1.59,-4.09 -1.08,-4.22 -0.57,-4.35 -0.04,-4.35 0.48,-4.36 1.00,-4.24 1.51,-4.11 1.51,-4.11 L 1.51,-4.11 Z"/></g><g transform="translate(408.14389003488805 307.3336309257601) rotate(0 44.32725916422919 55.920521518556995)" stroke="none"><path fill="#1e1e1e" d="M 0,-4.64 Q 0,-4.64 3.13,-4.63 6.27,-4.61 9.17,-4.64 12.07,-4.67 14.54,-4.73 17.01,-4.80 20.81,-3.42 24.60,-2.05 28.00,-0.17 31.40,1.71 34.25,3.79 37.09,5.87 39.35,7.38 41.60,8.90 43.74,11.00 45.89,13.11 47.70,15.79 49.51,18.47 50.78,21.43 52.06,24.38 52.98,27.23 53.90,30.08 54.31,33.62 54.73,37.16 54.90,40.19 55.07,43.23 54.69,46.78 54.31,50.34 53.23,54.04 52.15,57.74 49.82,61.55 47.50,65.36 44.84,68.80 42.17,72.25 38.48,75.77 34.78,79.30 31.22,82.30 27.66,85.30 24.08,87.79 20.51,90.29 17.94,92.25 15.37,94.20 13.68,95.84 11.98,97.47 10.06,98.53 8.13,99.60 5.66,101.14 3.20,102.68 0.51,101.71 -2.16,100.75 -3.55,98.40 -4.95,96.04 -5.18,93.77 -5.41,91.49 -4.03,88.21 -2.65,84.92 -1.03,83.54 0.58,82.16 4.66,80.60 8.73,79.05 11.37,78.90 14.01,78.75 17.46,78.87 20.91,78.99 24.28,79.47 27.64,79.94 31.27,81.11 34.89,82.27 38.27,84.14 41.65,86.01 44.42,87.49 47.18,88.98 49.90,91.00 52.61,93.02 54.97,94.44 57.33,95.85 59.47,97.39 61.62,98.94 64.98,100.93 68.34,102.91 71.22,104.35 74.11,105.79 76.58,105.03 79.05,104.27 81.12,102.28 83.20,100.28 82.80,100.23 82.41,100.19 82.75,99.23 83.10,98.28 83.73,97.49 84.37,96.70 85.22,96.15 86.08,95.60 87.06,95.35 88.04,95.10 89.05,95.18 90.07,95.26 91.00,95.66 91.93,96.06 92.69,96.74 93.45,97.41 93.95,98.29 94.45,99.17 94.64,100.17 94.84,101.17 94.70,102.17 94.57,103.18 94.12,104.09 93.67,105.00 92.96,105.72 92.24,106.44 91.33,106.89 90.42,107.34 89.42,107.48 88.41,107.62 87.42,107.43 86.42,107.24 85.54,106.75 84.65,106.25 83.97,105.50 83.29,104.74 82.89,103.81 82.49,102.88 82.40,101.87 82.32,100.86 82.56,99.87 82.80,98.89 83.35,98.03 83.89,97.18 84.68,96.54 85.47,95.90 86.42,95.55 87.37,95.20 88.39,95.17 89.40,95.14 90.37,95.43 91.34,95.73 92.17,96.32 92.99,96.91 93.59,97.73 94.18,98.55 94.48,99.52 94.78,100.49 94.76,101.51 94.73,102.52 94.73,102.52 94.73,102.52 93.36,105.77 91.99,109.02 90.16,110.59 88.32,112.16 85.42,113.79 82.51,115.42 80.38,115.98 78.25,116.54 73.57,116.06 68.89,115.58 65.73,113.65 62.57,111.72 60.79,110.48 59.00,109.25 55.67,106.70 52.34,104.15 49.54,102.47 46.74,100.79 44.71,99.23 42.68,97.66 39.80,96.24 36.93,94.81 34.43,93.53 31.93,92.25 29.10,91.53 26.27,90.81 23.67,90.55 21.08,90.28 15.94,90.61 10.80,90.94 8.63,91.41 6.47,91.88 4.28,92.96 2.10,94.03 4.68,92.81 7.26,91.58 9.36,90.09 11.46,88.60 14.14,86.90 16.82,85.20 20.05,82.78 23.28,80.36 26.51,77.33 29.74,74.30 32.79,71.02 35.84,67.74 37.98,64.40 40.12,61.06 41.72,58.13 43.32,55.20 44.09,52.27 44.85,49.34 45.13,46.53 45.40,43.72 45.27,40.99 45.14,38.26 44.85,35.61 44.56,32.97 43.81,30.50 43.06,28.02 42.25,25.84 41.44,23.66 38.86,20.03 36.27,16.41 34.01,14.75 31.74,13.09 29.49,11.39 27.24,9.69 24.18,8.22 21.12,6.76 18.94,5.78 16.77,4.80 14.42,4.73 12.07,4.67 9.17,4.64 6.27,4.61 3.13,4.63 0,4.64 -0.55,4.57 -1.11,4.50 -1.63,4.30 -2.15,4.11 -2.61,3.79 -3.07,3.47 -3.45,3.05 -3.82,2.63 -4.08,2.14 -4.34,1.64 -4.47,1.10 -4.60,0.55 -4.60,-0.00 -4.60,-0.55 -4.47,-1.10 -4.34,-1.64 -4.08,-2.14 -3.82,-2.63 -3.44,-3.05 -3.07,-3.47 -2.61,-3.79 -2.15,-4.11 -1.63,-4.30 -1.11,-4.50 -0.55,-4.57 0.00,-4.64 0.00,-4.64 L 0,-4.64 Z"/></g><g transform="translate(413.5994694544488 184.58122093250978) rotate(0 22.504525251956807 19.094788114731188)" stroke="none"><path fill="#1e1e1e" d="M -4.08,-3.26 Q -4.08,-3.26 -2.53,-5.23 -0.98,-7.20 0.64,-9.83 2.27,-12.47 4.50,-15.19 6.74,-17.90 11.82,-19.58 16.91,-21.25 18.36,-19.02 19.81,-16.80 19.96,-14.67 20.12,-12.55 20.12,-9.02 20.13,-5.49 20.13,-2.06 20.14,1.36 20.14,4.77 20.14,8.18 20.13,11.76 20.12,15.34 20.21,18.02 20.29,20.70 20.38,23.48 20.47,26.26 20.51,28.70 20.56,31.14 20.61,33.45 20.66,35.77 20.71,38.52 20.76,41.27 20.80,44.00 20.84,46.72 20.26,49.27 19.69,51.82 18.37,53.68 17.06,55.54 14.89,57.03 12.72,58.51 10.58,59.28 8.44,60.04 6.36,60.69 4.28,61.35 1.63,61.54 -1.01,61.74 -3.33,62.34 -5.65,62.94 -6.52,63.01 -7.40,63.07 -8.26,62.92 -9.12,62.78 -9.93,62.42 -10.73,62.07 -11.43,61.54 -12.12,61.01 -12.67,60.33 -13.22,59.64 -13.59,58.85 -13.96,58.05 -14.13,57.19 -14.30,56.33 -14.25,55.46 -14.21,54.58 -13.96,53.74 -13.71,52.90 -13.26,52.14 -12.82,51.39 -12.21,50.76 -11.59,50.13 -10.85,49.67 -10.10,49.21 -9.27,48.94 -8.44,48.67 -5.17,47.72 -1.90,46.77 2.00,46.03 5.90,45.29 8.89,44.72 11.88,44.15 15.11,43.88 18.35,43.60 20.87,43.48 23.38,43.37 26.69,41.98 29.99,40.60 32.00,39.83 34.01,39.07 36.47,37.70 38.93,36.34 41.85,34.76 44.76,33.18 48.22,31.59 51.68,30.00 52.81,30.01 53.93,30.02 55.00,30.39 56.07,30.76 56.96,31.44 57.85,32.13 58.48,33.07 59.10,34.01 59.40,35.10 59.69,36.19 59.62,37.31 59.55,38.44 59.12,39.48 58.70,40.53 57.96,41.38 57.23,42.23 56.25,42.81 55.28,43.38 54.18,43.62 53.08,43.85 51.96,43.72 50.84,43.59 49.82,43.11 48.80,42.63 47.99,41.84 47.17,41.06 46.65,40.06 46.13,39.06 45.96,37.95 45.79,36.83 45.98,35.72 46.17,34.61 46.70,33.62 47.24,32.63 48.06,31.86 48.89,31.09 49.92,30.62 50.94,30.16 52.06,30.05 53.19,29.93 54.29,30.18 55.39,30.43 56.35,31.02 57.31,31.61 58.03,32.48 58.75,33.34 59.16,34.39 59.57,35.44 59.63,36.57 59.68,37.70 59.37,38.78 59.06,39.86 58.42,40.79 57.78,41.72 56.87,42.40 55.97,43.07 54.90,43.42 53.83,43.77 53.83,43.77 53.83,43.77 53.76,43.45 53.69,43.13 51.40,43.95 49.10,44.76 46.62,46.52 44.13,48.28 41.90,49.06 39.67,49.84 36.46,51.15 33.24,52.46 30.82,53.30 28.39,54.14 26.27,54.68 24.14,55.21 21.90,55.36 19.66,55.51 17.25,55.85 14.83,56.19 11.91,57.08 8.98,57.97 6.35,58.82 3.72,59.67 1.13,60.88 -1.45,62.09 -3.55,62.52 -5.65,62.94 -6.52,63.01 -7.39,63.07 -8.26,62.92 -9.12,62.78 -9.93,62.43 -10.73,62.07 -11.43,61.54 -12.12,61.01 -12.67,60.33 -13.22,59.64 -13.59,58.85 -13.96,58.05 -14.13,57.19 -14.30,56.33 -14.25,55.46 -14.21,54.58 -13.96,53.74 -13.71,52.90 -13.26,52.14 -12.82,51.39 -12.21,50.76 -11.59,50.13 -10.85,49.67 -10.10,49.21 -9.27,48.94 -8.44,48.67 -7.28,48.57 -6.12,48.47 -2.06,47.76 1.99,47.06 5.44,45.77 8.89,44.49 7.65,46.29 6.41,48.09 6.45,45.36 6.49,42.63 6.54,39.89 6.59,37.16 6.63,35.00 6.67,32.84 6.72,30.23 6.76,27.63 6.85,24.88 6.93,22.13 7.01,19.81 7.09,17.49 7.13,14.80 7.16,12.10 7.14,8.30 7.11,4.50 7.11,1.08 7.11,-2.32 7.11,-5.75 7.10,-9.18 8.03,-11.38 8.97,-13.57 12.42,-12.56 15.88,-11.55 13.40,-8.52 10.93,-5.48 9.09,-3.06 7.25,-0.64 5.67,1.31 4.08,3.26 3.63,3.70 3.18,4.14 2.63,4.46 2.09,4.78 1.49,4.96 0.88,5.15 0.26,5.18 -0.36,5.21 -0.98,5.09 -1.60,4.97 -2.17,4.71 -2.74,4.44 -3.24,4.05 -3.73,3.65 -4.11,3.15 -4.50,2.65 -4.75,2.08 -5.00,1.50 -5.11,0.88 -5.22,0.26 -5.17,-0.36 -5.13,-0.99 -4.93,-1.59 -4.74,-2.19 -4.41,-2.73 -4.08,-3.26 -4.08,-3.26 L -4.08,-3.26 Z"/></g><g transform="translate(468.15609611811556 30.45873499887506) rotate(0 -48.41904778740718 27.27830032451996)" stroke="none"><path fill="#1e1e1e" d="M 1.06,4.25 Q 1.06,4.25 -3.69,5.20 -8.45,6.15 -12.64,7.59 -16.83,9.04 -20.66,10.45 -24.49,11.86 -28.22,12.96 -31.94,14.05 -35.03,14.99 -38.12,15.93 -40.27,17.09 -42.42,18.25 -45.21,19.31 -48.00,20.36 -50.13,20.95 -52.25,21.53 -55.94,22.56 -59.64,23.60 -63.35,23.63 -67.07,23.66 -69.73,23.75 -72.40,23.84 -76.32,24.05 -80.24,24.26 -82.96,24.42 -85.68,24.59 -89.74,24.13 -93.81,23.68 -96.10,22.78 -98.40,21.88 -100.06,20.37 -101.72,18.87 -101.66,14.56 -101.59,10.25 -100.28,8.22 -98.96,6.20 -96.52,4.34 -94.08,2.47 -91.13,0.25 -88.18,-1.96 -85.22,-3.63 -82.25,-5.29 -78.97,-7.01 -75.68,-8.72 -72.92,-10.02 -70.16,-11.32 -67.21,-12.80 -64.26,-14.27 -61.60,-15.48 -58.94,-16.70 -55.69,-18.41 -52.43,-20.13 -49.67,-21.71 -46.91,-23.30 -43.95,-24.61 -40.98,-25.92 -36.78,-24.87 -32.58,-23.83 -30.96,-20.59 -29.34,-17.35 -29.20,-14.07 -29.07,-10.79 -29.16,-8.07 -29.24,-5.35 -29.57,-1.46 -29.89,2.43 -30.26,7.61 -30.63,12.79 -31.31,18.29 -32.00,23.78 -32.37,28.32 -32.75,32.85 -33.31,36.92 -33.87,40.99 -33.93,43.76 -33.99,46.52 -33.96,49.23 -33.94,51.93 -34.16,56.31 -34.38,60.69 -34.36,63.47 -34.34,66.25 -34.17,68.74 -34.00,71.23 -33.97,72.90 -33.95,74.58 -34.09,75.48 -34.24,76.37 -34.67,77.17 -35.09,77.97 -35.75,78.59 -36.41,79.22 -37.23,79.60 -38.06,79.97 -38.96,80.07 -39.86,80.17 -40.74,79.97 -41.63,79.78 -42.41,79.31 -43.18,78.84 -43.77,78.15 -44.35,77.46 -44.69,76.61 -45.02,75.77 -45.07,74.87 -45.12,73.96 -44.87,73.09 -44.63,72.21 -44.12,71.47 -43.61,70.72 -42.89,70.17 -42.16,69.62 -41.30,69.33 -40.45,69.05 -39.54,69.05 -38.63,69.05 -37.77,69.34 -36.92,69.63 -36.20,70.18 -35.47,70.73 -34.97,71.48 -34.46,72.23 -34.22,73.10 -33.98,73.98 -34.03,74.88 -34.08,75.79 -34.42,76.63 -34.75,77.47 -35.34,78.16 -35.93,78.85 -36.71,79.32 -37.48,79.78 -38.37,79.98 -39.25,80.17 -40.16,80.07 -41.06,79.97 -41.88,79.59 -42.70,79.21 -43.36,78.58 -44.01,77.96 -44.44,77.16 -44.86,76.35 -45.00,75.46 -45.15,74.57 -45.15,74.57 -45.15,74.57 -45.12,72.85 -45.08,71.14 -44.81,68.45 -44.54,65.75 -44.03,62.29 -43.52,58.84 -42.85,55.26 -42.19,51.69 -41.99,48.84 -41.79,45.99 -41.46,43.06 -41.13,40.14 -40.76,36.36 -40.40,32.58 -40.44,27.87 -40.49,23.16 -40.39,17.98 -40.29,12.80 -40.66,7.62 -41.03,2.44 -41.37,-1.43 -41.70,-5.31 -41.81,-7.97 -41.91,-10.62 -41.83,-13.64 -41.76,-16.66 -39.77,-15.63 -37.78,-14.60 -40.11,-13.71 -42.44,-12.82 -45.05,-11.59 -47.66,-10.35 -51.18,-8.82 -54.71,-7.29 -56.97,-6.29 -59.24,-5.28 -62.33,-3.38 -65.43,-1.48 -67.67,-0.38 -69.91,0.72 -72.85,2.81 -75.79,4.91 -79.83,7.85 -83.88,10.80 -85.68,12.23 -87.48,13.66 -89.53,12.92 -91.58,12.19 -88.63,12.89 -85.69,13.59 -82.98,13.74 -80.28,13.90 -76.42,14.06 -72.55,14.21 -69.95,14.22 -67.34,14.23 -62.83,14.00 -58.32,13.77 -54.46,13.14 -50.61,12.50 -48.14,11.81 -45.68,11.11 -42.85,10.00 -40.02,8.89 -36.93,8.17 -33.84,7.45 -30.41,6.49 -26.97,5.53 -23.18,3.95 -19.40,2.36 -14.88,0.45 -10.36,-1.45 -5.71,-2.85 -1.06,-4.25 -0.53,-4.32 -0.01,-4.38 0.51,-4.32 1.03,-4.26 1.53,-4.07 2.02,-3.89 2.46,-3.59 2.89,-3.29 3.24,-2.89 3.60,-2.50 3.84,-2.03 4.09,-1.56 4.22,-1.05 4.35,-0.54 4.35,-0.01 4.35,0.51 4.23,1.02 4.10,1.54 3.86,2.01 3.61,2.48 3.26,2.87 2.91,3.27 2.48,3.57 2.05,3.87 1.55,4.06 1.06,4.25 1.06,4.25 L 1.06,4.25 Z"/></g></svg>